<svg width="237" height="1019" viewBox="0 0 237 1019" fill="none" xmlns="http://www.w3.org/2000/svg">
<circle cx="142.169" cy="794.296" r="11.8466" transform="rotate(-90 142.169 794.296)" fill="#3C3C3C" stroke="#3C3C3C"/>
<circle cx="183.325" cy="794.296" r="11.8466" transform="rotate(-90 183.325 794.296)" fill="#3C3C3C" stroke="#3C3C3C"/>
<circle cx="224.481" cy="794.296" r="11.8466" transform="rotate(-90 224.481 794.296)" fill="#3C3C3C" stroke="#3C3C3C"/>
<circle cx="183.325" cy="749.849" r="11.8466" transform="rotate(-90 183.325 749.849)" fill="#3C3C3C" stroke="#3C3C3C"/>
<circle cx="142.171" cy="688.939" r="11.8466" transform="rotate(-90 142.171 688.939)" fill="#3C3C3C" stroke="#3C3C3C"/>
<circle cx="183.325" cy="583.581" r="11.8466" transform="rotate(-90 183.325 583.581)" fill="#3C3C3C" stroke="#3C3C3C"/>
<circle cx="142.169" cy="539.133" r="11.8466" transform="rotate(-90 142.169 539.133)" fill="#3C3C3C" stroke="#3C3C3C"/>
<circle cx="142.169" cy="478.224" r="11.8466" transform="rotate(-90 142.169 478.224)" fill="#3C3C3C" stroke="#3C3C3C"/>
<circle cx="183.325" cy="478.224" r="11.8466" transform="rotate(-90 183.325 478.224)" fill="#3C3C3C" stroke="#3C3C3C"/>
<circle cx="224.481" cy="478.224" r="11.8466" transform="rotate(-90 224.481 478.224)" fill="#3C3C3C" stroke="#3C3C3C"/>
<circle cx="142.169" cy="372.866" r="11.8466" transform="rotate(-90 142.169 372.866)" fill="#3C3C3C" stroke="#3C3C3C"/>
<circle cx="183.325" cy="372.866" r="11.8466" transform="rotate(-90 183.325 372.866)" fill="#3C3C3C" stroke="#3C3C3C"/>
<circle cx="224.481" cy="372.866" r="11.8466" transform="rotate(-90 224.481 372.866)" fill="#3C3C3C" stroke="#3C3C3C"/>
<circle cx="183.325" cy="267.509" r="11.8466" transform="rotate(-90 183.325 267.509)" fill="#3C3C3C" stroke="#3C3C3C"/>
<circle cx="142.169" cy="223.061" r="11.8466" transform="rotate(-90 142.169 223.061)" fill="#3C3C3C" stroke="#3C3C3C"/>
<circle cx="142.171" cy="162.151" r="11.8466" transform="rotate(-90 142.171 162.151)" fill="#3C3C3C" stroke="#3C3C3C"/>
<circle cx="183.325" cy="162.151" r="11.8466" transform="rotate(-90 183.325 162.151)" fill="#3C3C3C" stroke="#3C3C3C"/>
<circle cx="142.169" cy="117.704" r="11.8466" transform="rotate(-90 142.169 117.704)" fill="#3C3C3C" stroke="#3C3C3C"/>
<circle cx="142.169" cy="56.7941" r="11.8466" transform="rotate(-90 142.169 56.7941)" fill="#3C3C3C" stroke="#3C3C3C"/>
<circle cx="224.481" cy="56.7941" r="11.8466" transform="rotate(-90 224.481 56.7941)" fill="#3C3C3C" stroke="#3C3C3C"/>
<circle cx="142.171" cy="12.3465" r="11.8466" transform="rotate(-90 142.171 12.3465)" fill="#3C3C3C" stroke="#3C3C3C"/>
<circle cx="183.325" cy="12.3465" r="11.8466" transform="rotate(-90 183.325 12.3465)" fill="#3C3C3C" stroke="#3C3C3C"/>
<circle cx="224.481" cy="12.3465" r="11.8466" transform="rotate(-90 224.481 12.3465)" fill="#3C3C3C" stroke="#3C3C3C"/>
<circle cx="141.347" cy="899.653" r="11.8466" transform="rotate(-90 141.347 899.653)" fill="#3C3C3C" stroke="#3C3C3C"/>
<circle cx="182.503" cy="899.653" r="11.8466" transform="rotate(-90 182.503 899.653)" fill="#3C3C3C" stroke="#3C3C3C"/>
<circle cx="12.3466" cy="12.3466" r="11.8466" transform="matrix(-4.37114e-08 1 1 4.37114e-08 0.822266 212.358)" stroke="#3C3C3C"/>
<circle cx="12.3466" cy="12.3466" r="11.8466" transform="matrix(-4.37114e-08 1 1 4.37114e-08 41.9785 212.357)" stroke="#3C3C3C"/>
<circle cx="12.3466" cy="12.3466" r="11.8466" transform="matrix(-4.37114e-08 1 1 4.37114e-08 83.1348 212.357)" stroke="#3C3C3C"/>
<circle cx="12.3466" cy="12.3466" r="11.8466" transform="matrix(-4.37114e-08 1 1 4.37114e-08 41.9785 256.805)" stroke="#3C3C3C"/>
<circle cx="12.3466" cy="12.3466" r="11.8466" transform="matrix(-4.37114e-08 1 1 4.37114e-08 0.824219 317.715)" stroke="#3C3C3C"/>
<circle cx="12.3466" cy="12.3466" r="11.8466" transform="matrix(-4.37114e-08 1 1 4.37114e-08 41.9785 423.072)" stroke="#3C3C3C"/>
<circle cx="12.3466" cy="12.3466" r="11.8466" transform="matrix(-4.37114e-08 1 1 4.37114e-08 0.822266 467.52)" stroke="#3C3C3C"/>
<circle cx="12.3466" cy="12.3466" r="11.8466" transform="matrix(-4.37114e-08 1 1 4.37114e-08 0.822266 528.43)" stroke="#3C3C3C"/>
<circle cx="12.3466" cy="12.3466" r="11.8466" transform="matrix(-4.37114e-08 1 1 4.37114e-08 41.9785 528.43)" stroke="#3C3C3C"/>
<circle cx="12.3466" cy="12.3466" r="11.8466" transform="matrix(-4.37114e-08 1 1 4.37114e-08 83.1348 528.43)" stroke="#3C3C3C"/>
<circle cx="12.3466" cy="12.3466" r="11.8466" transform="matrix(-4.37114e-08 1 1 4.37114e-08 0.822266 633.787)" stroke="#3C3C3C"/>
<circle cx="12.3466" cy="12.3466" r="11.8466" transform="matrix(-4.37114e-08 1 1 4.37114e-08 41.9785 633.787)" stroke="#3C3C3C"/>
<circle cx="12.3466" cy="12.3466" r="11.8466" transform="matrix(-4.37114e-08 1 1 4.37114e-08 83.1348 633.787)" stroke="#3C3C3C"/>
<circle cx="12.3466" cy="12.3466" r="11.8466" transform="matrix(-4.37114e-08 1 1 4.37114e-08 41.9785 739.144)" stroke="#3C3C3C"/>
<circle cx="12.3466" cy="12.3466" r="11.8466" transform="matrix(-4.37114e-08 1 1 4.37114e-08 0.822266 783.592)" stroke="#3C3C3C"/>
<circle cx="12.3466" cy="12.3466" r="11.8466" transform="matrix(-4.37114e-08 1 1 4.37114e-08 0.824219 844.502)" stroke="#3C3C3C"/>
<circle cx="12.3466" cy="12.3466" r="11.8466" transform="matrix(-4.37114e-08 1 1 4.37114e-08 41.9785 844.502)" stroke="#3C3C3C"/>
<circle cx="12.3466" cy="12.3466" r="11.8466" transform="matrix(-4.37114e-08 1 1 4.37114e-08 0.822266 888.95)" stroke="#3C3C3C"/>
<circle cx="12.3466" cy="12.3466" r="11.8466" transform="matrix(-4.37114e-08 1 1 4.37114e-08 0.822266 949.859)" stroke="#3C3C3C"/>
<circle cx="12.3466" cy="12.3466" r="11.8466" transform="matrix(-4.37114e-08 1 1 4.37114e-08 83.1348 949.859)" stroke="#3C3C3C"/>
<circle cx="12.3466" cy="12.3466" r="11.8466" transform="matrix(-4.37114e-08 1 1 4.37114e-08 0.824219 994.307)" stroke="#3C3C3C"/>
<circle cx="12.3466" cy="12.3466" r="11.8466" transform="matrix(-4.37114e-08 1 1 4.37114e-08 41.9785 994.307)" stroke="#3C3C3C"/>
<circle cx="12.3466" cy="12.3466" r="11.8466" transform="matrix(-4.37114e-08 1 1 4.37114e-08 83.1348 994.307)" stroke="#3C3C3C"/>
<circle cx="12.3466" cy="12.3466" r="11.8466" transform="matrix(-4.37114e-08 1 1 4.37114e-08 0 107)" stroke="#3C3C3C"/>
<circle cx="12.3466" cy="12.3466" r="11.8466" transform="matrix(-4.37114e-08 1 1 4.37114e-08 41.1562 107)" stroke="#3C3C3C"/>
</svg>
