<svg width="28" height="32" viewBox="0 0 28 32" fill="none" xmlns="http://www.w3.org/2000/svg">
<g clip-path="url(#clip0_72_418)">
<path d="M6.6 26.8V21.4139C6.13887 21.5047 5.66998 21.5503 5.2 21.5499C2.20537 21.5499 0 19.3579 0 15.7999C0 12.9678 3.03356 12.2373 4.924 11.0683C5.69981 10.5848 6.38131 10.0061 7.00231 9.45256L7.01144 9.44438L7.02069 9.43631C8.11294 8.47888 8.5 7.98525 8.5 7.55V7.38256C8.1905 7.02338 8 6.53656 8 6.00006V2.00006C8 0.895502 8.80587 6.48499e-05 9.8 6.48499e-05H24.2C25.1941 6.48499e-05 26 0.895502 26 2.00006V6.00006C26 6.53656 25.8095 7.02338 25.5 7.38256V7.55C25.5 9.343 28 11.7461 28 15.5V16.8312C28 20.7401 25.5839 23.0062 22.3034 23.0774C21.1901 23.8576 19.7544 24.2331 18.379 24.0765C17.942 24.2991 17.4787 24.4656 17 24.5721V26.8C17 29.6397 14.651 32 11.8 32C8.98131 32 6.6 29.6187 6.6 26.8ZM14 26.8V21.1109C14.9168 21.9132 16.6766 22.0118 17.8156 20.8015C19.0435 21.5032 20.6671 20.9069 21.1672 19.9937C23.6127 20.4014 25 19.3639 25 16.8312V15.5C25 12.6568 22.7554 10.6744 22.5203 8H11.4732C11.2879 9.57744 10.1468 10.6854 8.99844 11.6922C8.20781 12.3969 7.41719 13.05 6.50625 13.6171C5.0445 14.5222 3 15.2504 3 15.8C3 17.2609 3.55 18.55 5.2 18.55C7.4 18.55 8.51719 16.9 9.6 16.9V26.8C9.6 27.9516 10.6313 29 11.8 29C12.9859 29 14 27.9859 14 26.8ZM22 5.5C22.8284 5.5 23.5 4.82844 23.5 4C23.5 3.17156 22.8284 2.5 22 2.5C21.1716 2.5 20.5 3.17156 20.5 4C20.5 4.82844 21.1716 5.5 22 5.5Z" fill="#2B2B2B"/>
</g>
<defs>
<clipPath id="clip0_72_418">
<rect width="28" height="32" fill="white" transform="matrix(1 0 0 -1 0 32)"/>
</clipPath>
</defs>
</svg>
