    <svg
      fill="none"
      height="28"
      viewBox="0 0 28 28"
      width="28"
      xmlns="http://www.w3.org/2000/svg"
    >
      <path
        d="M13.9994 22.1666C14.2851 22.1666 14.5609 22.2715 14.7745 22.4614C14.988 22.6513 15.1244 22.913 15.1579 23.1968L15.166 23.3333V24.4999C15.1657 24.7973 15.0518 25.0833 14.8477 25.2995C14.6436 25.5157 14.3646 25.6459 14.0677 25.6633C13.7709 25.6807 13.4786 25.5841 13.2506 25.3933C13.0225 25.2024 12.876 24.9317 12.8409 24.6364L12.8327 24.4999V23.3333C12.8327 23.0238 12.9556 22.7271 13.1744 22.5083C13.3932 22.2895 13.6899 22.1666 13.9994 22.1666ZM21.3645 19.7283L21.4742 19.8251L22.2909 20.6418C22.5001 20.8517 22.6216 21.1334 22.6306 21.4297C22.6397 21.726 22.5356 22.0146 22.3396 22.2369C22.1435 22.4592 21.8702 22.5986 21.5751 22.6267C21.2801 22.6548 20.9853 22.5696 20.7509 22.3883L20.6412 22.2914L19.8245 21.4748C19.6232 21.2738 19.5022 21.0062 19.4844 20.7223C19.4666 20.4383 19.5531 20.1577 19.7276 19.9331C19.9022 19.7085 20.1528 19.5554 20.4324 19.5027C20.7119 19.4499 21.0011 19.5011 21.2455 19.6466L21.3645 19.7283ZM8.17419 19.8251C8.37506 20.026 8.49573 20.2933 8.51356 20.5768C8.53139 20.8603 8.44515 21.1406 8.27103 21.3651L8.17419 21.4748L7.35753 22.2914C7.14757 22.5007 6.86585 22.6221 6.56958 22.6312C6.2733 22.6402 5.98469 22.5362 5.76237 22.3401C5.54004 22.1441 5.40067 21.8708 5.37256 21.5757C5.34445 21.2806 5.42971 20.9859 5.61102 20.7514L5.70786 20.6418L6.52452 19.8251C6.74331 19.6064 7.04 19.4835 7.34936 19.4835C7.65872 19.4835 7.95541 19.6064 8.17419 19.8251ZM4.66603 12.8333C4.96338 12.8336 5.2494 12.9474 5.46562 13.1516C5.68185 13.3557 5.81197 13.6347 5.82939 13.9315C5.84682 14.2284 5.75024 14.5207 5.55938 14.7487C5.36853 14.9768 5.0978 15.1233 4.80253 15.1584L4.66603 15.1666H3.49936C3.202 15.1663 2.91599 15.0524 2.69976 14.8483C2.48354 14.6441 2.35342 14.3651 2.33599 14.0683C2.31856 13.7714 2.41515 13.4791 2.606 13.2511C2.79686 13.0231 3.06758 12.8765 3.36286 12.8414L3.49936 12.8333H4.66603ZM24.4994 12.8333C24.7967 12.8336 25.0827 12.9474 25.299 13.1516C25.5152 13.3557 25.6453 13.6347 25.6627 13.9315C25.6802 14.2284 25.5836 14.5207 25.3927 14.7487C25.2019 14.9768 24.9311 15.1233 24.6359 15.1584L24.4994 15.1666H23.3327C23.0353 15.1663 22.7493 15.0524 22.5331 14.8483C22.3169 14.6441 22.1868 14.3651 22.1693 14.0683C22.1519 13.7714 22.2485 13.4791 22.4393 13.2511C22.6302 13.0231 22.9009 12.8765 23.1962 12.8414L23.3327 12.8333H24.4994ZM7.24786 5.61159L7.35753 5.70842L8.17419 6.52508C8.38343 6.73504 8.50491 7.01676 8.51396 7.31303C8.52301 7.60931 8.41894 7.89792 8.2229 8.12024C8.02686 8.34257 7.75355 8.48194 7.45847 8.51005C7.16339 8.53816 6.86868 8.4529 6.63419 8.27159L6.52452 8.17475L5.70786 7.35809C5.5073 7.15704 5.38695 6.88975 5.36937 6.60632C5.35179 6.32289 5.4382 6.04278 5.61238 5.8185C5.78657 5.59422 6.03658 5.44117 6.31554 5.38804C6.5945 5.33492 6.88326 5.38536 7.12769 5.52992L7.24786 5.61159ZM22.2909 5.70842C22.4917 5.90931 22.6124 6.17659 22.6302 6.46012C22.6481 6.74365 22.5618 7.02395 22.3877 7.24842L22.2909 7.35809L21.4742 8.17475C21.2642 8.38399 20.9825 8.50547 20.6862 8.51452C20.39 8.52357 20.1014 8.4195 19.879 8.22346C19.6567 8.02742 19.5173 7.75411 19.4892 7.45903C19.4611 7.16396 19.5464 6.86924 19.7277 6.63475L19.8245 6.52508L20.6412 5.70842C20.86 5.4897 21.1567 5.36683 21.466 5.36683C21.7754 5.36683 22.0721 5.4897 22.2909 5.70842ZM13.9994 2.33325C14.2851 2.33329 14.5609 2.4382 14.7745 2.62809C14.988 2.81797 15.1244 3.07963 15.1579 3.36342L15.166 3.49992V4.66659C15.1657 4.96394 15.0518 5.24996 14.8477 5.46618C14.6436 5.68241 14.3646 5.81253 14.0677 5.82995C13.7709 5.84738 13.4786 5.7508 13.2506 5.55994C13.0225 5.36909 12.876 5.09836 12.8409 4.80309L12.8327 4.66659V3.49992C12.8327 3.1905 12.9556 2.89375 13.1744 2.67496C13.3932 2.45617 13.6899 2.33325 13.9994 2.33325ZM13.9994 8.16658C15.1423 8.16652 16.2601 8.50222 17.2139 9.132C18.1677 9.76178 18.9155 10.6579 19.3643 11.709C19.8132 12.7601 19.9434 13.92 19.7387 15.0444C19.5341 16.1689 19.0036 17.2085 18.2132 18.0341C17.4227 18.8597 16.4072 19.4348 15.2926 19.6882C14.1781 19.9415 13.0137 19.8618 11.9441 19.4591C10.8744 19.0563 9.94669 18.3482 9.27606 17.4226C8.60543 16.4971 8.22146 15.395 8.17186 14.2531L8.16603 13.9999L8.17186 13.7468C8.2371 12.245 8.87957 10.8263 9.96529 9.78669C11.051 8.74705 12.4962 8.16667 13.9994 8.16658Z"
        fill="#2B2B2B"
      />
    </svg>
